<svg version="1.1" id="Layer_1" xmlns="http://www.w3.org/2000/svg" xmlns:xlink="http://www.w3.org/1999/xlink" x="0px" y="0px"
	 width="100%" viewBox="0 0 500 500" enable-background="new 0 0 500 500" xml:space="preserve">
<path fill="#010101" opacity="1.000000" stroke="none" 
	d="
M1.361326,230.214935 
	C1.000000,155.034180 1.023285,80.068329 0.919972,5.102651 
	C0.915564,1.904201 1.258535,0.890746 4.893893,0.893470 
	C168.985657,1.016419 333.077515,1.017965 497.169281,0.887363 
	C500.934143,0.884367 501.073090,2.098536 501.069458,5.165799 
	C500.980621,80.464684 501.000000,155.763687 501.000000,231.531342 
	C498.813843,233.209122 497.860596,231.454788 497.129700,230.095932 
	C494.669891,225.523041 490.714874,222.517090 486.687073,219.527679 
	C481.068298,215.357452 475.495636,211.125076 469.896484,206.928360 
	C463.578979,202.193192 460.537506,195.922501 460.556946,188.004456 
	C460.609772,166.512543 460.623932,145.020233 460.562103,123.528297 
	C460.479797,94.913719 441.643951,72.366196 413.559570,67.073311 
	C409.254028,66.261871 404.933319,66.494408 400.607361,66.451096 
	C397.667664,66.421669 396.425659,67.837402 396.430725,70.739700 
	C396.446136,79.569511 396.437164,88.399490 396.435669,97.229393 
	C396.435211,100.097023 397.646393,101.503433 400.596985,101.565331 
	C419.116150,101.953842 425.742798,112.787292 425.493103,129.491592 
	C425.204285,148.813477 425.713470,168.148514 425.344086,187.467667 
	C424.984192,206.290497 432.015778,221.435989 446.213379,233.537933 
	C452.049103,238.512253 451.976837,240.184250 446.095856,245.145798 
	C432.272156,256.808319 425.278046,271.565826 425.394165,289.752472 
	C425.523956,310.077423 425.559448,330.404999 425.372437,350.729401 
	C425.242615,364.840454 416.967133,373.035522 402.957397,373.419128 
	C402.291321,373.437347 401.623383,373.470856 400.958710,373.447266 
	C397.831604,373.336365 396.420166,374.804901 396.427856,377.956512 
	C396.449036,386.619720 396.466034,395.283447 396.418579,403.946381 
	C396.401611,407.040680 397.644775,408.336792 400.819122,408.593964 
	C432.557251,411.165405 460.246826,385.863586 460.536530,353.698059 
	C460.722565,333.040588 460.729004,312.378418 460.491394,291.722137 
	C460.404266,284.150635 462.938202,278.060242 468.419342,273.091705 
	C474.217560,267.835754 479.910126,262.465088 485.794189,257.300995 
	C490.167206,253.463089 494.629517,249.668320 497.605225,244.516510 
	C498.195374,243.494736 498.897644,242.549957 500.637573,242.786896 
	C501.000000,327.630127 500.979736,412.260254 501.078674,496.890259 
	C501.082367,500.073944 500.762817,501.109985 497.113007,501.107239 
	C333.017303,500.983398 168.921478,500.981903 4.825776,501.113098 
	C1.050455,501.116089 0.928413,499.886047 0.931543,496.829071 
	C1.017167,413.198547 1.000000,329.567932 1.000000,245.468658 
	C2.543828,243.963730 3.535254,244.988693 4.353630,246.040176 
	C12.204268,256.127045 22.648161,263.472565 31.925674,272.041565 
	C37.536770,277.224152 40.567314,283.082611 40.491245,290.863708 
	C40.295860,310.849976 40.259640,330.841309 40.470097,350.827362 
	C40.712673,373.863617 50.585232,391.524994 70.871140,402.872559 
	C79.953857,407.953278 89.993317,409.435455 100.280609,409.551575 
	C103.144333,409.583893 104.569435,408.366547 104.567032,405.383240 
	C104.559654,396.222168 104.515594,387.060486 104.586479,377.900116 
	C104.614555,374.272034 102.666275,373.454376 99.532753,373.388123 
	C93.811081,373.267151 88.317825,372.482147 83.716461,368.401947 
	C78.899101,364.130219 76.568115,358.962372 76.571671,352.573364 
	C76.582314,333.417969 76.462158,314.261658 76.605927,295.107391 
	C76.759544,274.640625 70.047905,257.318665 54.240364,243.823395 
	C49.054836,239.396378 49.256702,238.630493 54.435692,234.375473 
	C69.632675,221.889694 76.420738,205.476212 76.543480,186.123398 
	C76.674477,165.469666 76.542442,144.814453 76.585060,124.159996 
	C76.612816,110.711327 84.461746,102.814529 97.912003,102.575150 
	C104.353455,102.460518 104.552086,102.276398 104.567947,95.702164 
	C104.587234,87.706917 104.458252,79.709099 104.620857,71.717346 
	C104.699295,67.862862 103.214806,66.513924 99.365730,66.369965 
	C67.138191,65.164696 40.723259,90.188164 40.461819,122.559547 
	C40.288284,144.045609 40.221958,165.537018 40.526344,187.020020 
	C40.651604,195.860550 37.192417,202.442230 30.466619,207.648499 
	C24.144287,212.542450 17.856623,217.512817 11.229693,221.964279 
	C7.609863,224.395782 5.999085,228.884277 1.361326,230.214935 
z"/>
<path fill="#FCFCFC" opacity="1.000000" stroke="none" 
	d="
M1.000000,230.466125 
	C1.386998,230.742264 2.152585,230.941940 2.476484,230.257263 
	C5.882499,223.057648 12.826562,219.637375 18.641991,215.028488 
	C22.297527,212.131393 26.025177,209.318466 29.813353,206.597076 
	C36.235851,201.983200 39.367855,195.932190 39.303989,187.888657 
	C39.131973,166.223907 39.113293,144.555710 39.289333,122.890976 
	C39.525089,93.877876 59.000648,70.917542 87.470024,65.785873 
	C92.757904,64.832718 98.114891,65.553429 103.430214,65.272636 
	C105.695549,65.152962 106.237976,66.133217 106.224945,68.209129 
	C106.156960,79.038757 106.140984,89.869614 106.246529,100.698685 
	C106.269356,103.040260 105.251503,103.500359 103.249794,103.423141 
	C100.922104,103.333351 98.576515,103.322945 96.255844,103.501274 
	C84.936577,104.371063 77.850105,111.638008 77.750038,123.006248 
	C77.573990,143.004227 77.343445,163.011673 77.758728,183.002228 
	C78.222092,205.307465 70.959282,223.756958 52.710075,237.222107 
	C50.098675,239.148926 51.722172,240.073669 53.084461,241.322098 
	C59.352425,247.066116 65.562881,252.846207 69.841148,260.358276 
	C75.516403,270.323212 77.651535,281.130005 77.660965,292.457153 
	C77.676910,311.623352 77.647377,330.789581 77.672234,349.955750 
	C77.691795,365.034637 84.710854,372.106689 99.637848,372.167999 
	C106.200394,372.194946 106.201317,372.194977 106.207069,378.794556 
	C106.215202,388.126312 106.178543,397.458435 106.260246,406.789551 
	C106.280075,409.053833 106.128487,410.367706 103.173035,410.491364 
	C78.850807,411.508881 59.608742,402.718353 46.864922,381.485870 
	C41.261700,372.150330 39.293354,361.743958 39.266678,350.960815 
	C39.218025,331.294739 39.094746,311.626556 39.329136,291.963165 
	C39.423512,284.045929 36.870686,277.795319 30.783516,272.693054 
	C23.510866,266.597107 16.610344,260.057465 9.343199,253.954636 
	C6.088966,251.221802 4.156490,247.585037 1.286029,244.700699 
	C1.000000,240.310745 1.000000,235.621490 1.000000,230.466125 
z"/>
<path fill="#FEFEFE" opacity="1.000000" stroke="none" 
	d="
M501.000000,242.541931 
	C500.676636,242.656403 500.134003,242.122833 499.868591,242.691071 
	C494.285706,254.643723 483.063019,261.282074 473.815308,269.602509 
	C465.844055,276.774475 461.256531,284.083374 461.756439,295.330688 
	C462.576965,313.792145 462.003815,332.316650 461.972534,350.814545 
	C461.924713,379.077240 446.204681,400.306854 419.345886,408.606598 
	C411.984619,410.881317 404.464539,409.626740 397.018219,410.016357 
	C395.029236,410.120483 394.983215,408.962189 394.986664,407.504486 
	C395.012299,396.672424 395.078827,385.839325 394.947174,375.008820 
	C394.914734,372.339600 396.133575,372.077148 398.274780,372.127258 
	C401.435028,372.201263 404.655487,372.352753 407.755310,371.866089 
	C417.471893,370.340515 423.717896,362.348969 423.763855,351.404144 
	C423.847748,331.407043 423.956482,311.407471 423.738098,291.412415 
	C423.526123,272.007324 430.725830,256.190979 445.543427,243.726517 
	C450.886627,239.231857 450.830902,239.136383 445.643005,234.920044 
	C430.546387,222.650543 423.613220,206.680115 423.736511,187.354248 
	C423.868317,166.691376 423.828705,146.027054 423.779999,125.363571 
	C423.754150,114.397972 418.900604,106.748787 410.468475,104.297737 
	C406.937439,103.271324 403.256104,102.816101 399.588562,103.223351 
	C395.988129,103.623138 394.764893,102.578346 394.890137,98.683289 
	C395.216797,88.528282 394.999878,78.355782 394.998657,68.190254 
	C394.998474,66.561630 394.586273,65.064224 397.316833,64.931404 
	C421.339600,63.762848 440.655151,72.015602 453.641663,92.893494 
	C459.493774,102.301651 461.903473,112.775642 461.945496,123.771820 
	C462.027649,145.269089 462.052277,166.767242 461.944214,188.264252 
	C461.906006,195.864914 464.709412,201.713165 470.971954,206.099457 
	C476.553375,210.008636 481.791748,214.411148 487.407898,218.266174 
	C492.950531,222.070724 497.331207,226.777725 500.729523,232.346619 
	C501.000000,235.361282 501.000000,238.722580 501.000000,242.541931 
z"/>
<path fill="#FCFCFC" opacity="1.000000" stroke="none" 
	d="
M171.939056,210.035858 
	C193.101349,227.766312 188.029770,260.784546 161.754410,270.417725 
	C146.141022,276.141998 128.306458,269.586853 120.381569,255.915787 
	C111.446251,240.501602 114.281906,222.544266 127.521088,210.703537 
	C139.545135,199.949585 157.968216,199.570145 171.939056,210.035858 
z"/>
<path fill="#FDFDFD" opacity="1.000000" stroke="none" 
	d="
M279.736328,222.419434 
	C288.709534,244.111816 278.144379,266.334808 255.930389,271.303131 
	C236.321442,275.688904 218.764496,264.870422 214.095917,244.908478 
	C209.677261,226.015259 222.445312,206.406586 240.907776,203.101028 
	C257.150055,200.192993 272.316650,207.640656 279.736328,222.419434 
z"/>
<path fill="#FDFDFD" opacity="1.000000" stroke="none" 
	d="
M357.256958,270.511658 
	C328.180725,278.309906 308.601990,255.420746 311.552399,232.525208 
	C314.752686,207.690643 344.167755,194.060074 365.168121,208.073181 
	C377.197021,216.099808 382.670441,227.717987 380.774628,241.850876 
	C378.924652,255.641968 371.129333,265.546448 357.256958,270.511658 
z"/>
<path fill="#E3F0F5" opacity="1.000000" stroke="none" 
	d="
M350.724243,333.008911 
	C351.022491,332.630890 351.002106,332.363739 350.806305,331.735046 
	C349.317474,331.779968 349.679474,330.715515 349.507935,329.738464 
	C348.363037,323.782715 346.003754,318.562592 344.563843,312.771210 
	C344.710907,316.264221 342.081635,318.525940 341.491821,321.901428 
	C340.499725,325.109161 339.543823,327.939667 338.527222,330.744720 
	C337.308319,334.108032 335.251801,336.601044 331.275208,336.433899 
	C327.391754,336.270599 325.248505,333.882477 324.324402,330.359131 
	C321.718323,320.422913 318.363464,310.708496 315.652985,300.803589 
	C315.053955,298.614594 314.312897,296.373566 317.197418,295.425232 
	C319.927887,294.527618 322.683228,294.757721 323.915863,297.864288 
	C325.626923,302.176422 326.722198,306.704193 328.001404,311.163971 
	C328.859100,314.154205 329.573395,317.199982 331.682037,321.047546 
	C335.005127,313.145538 336.967834,305.788055 339.180420,298.108093 
	C343.949646,293.074310 348.950012,294.304474 350.778076,300.520447 
	C352.691772,307.027588 354.124817,313.697235 357.273376,320.407990 
	C360.539948,313.401611 362.237396,306.387573 364.494293,299.579132 
	C365.218689,297.393829 366.037476,295.729736 368.764252,295.478333 
	C374.497589,294.949738 375.464813,295.970154 373.807434,301.466736 
	C371.894867,307.809631 369.181671,313.910492 367.722229,320.291199 
	C367.385193,320.090118 367.232819,320.393555 367.230774,320.563293 
	C367.483795,322.792236 366.344025,324.588562 365.755554,326.483673 
	C365.306152,326.594421 365.231873,326.780945 365.123596,327.266754 
	C365.824585,328.218506 365.500000,328.871124 364.781616,329.310730 
	C364.473450,329.097687 364.295349,329.393311 364.288971,329.565735 
	C362.735687,336.077606 361.304718,336.939178 353.791534,335.815735 
	C353.991974,335.456116 353.730530,335.244232 353.570068,335.193542 
	C352.358551,335.594635 352.047577,334.702209 351.685242,333.849426 
	C351.712616,333.413147 351.617310,333.253357 351.251831,333.023376 
	C350.940796,333.531311 350.757080,333.615662 350.724243,333.008911 
z"/>
<path fill="#E3F0F5" opacity="1.000000" stroke="none" 
	d="
M252.733810,139.005341 
	C252.737488,134.353363 252.728271,130.198761 252.752075,126.044342 
	C252.773972,122.218277 254.573914,120.193275 258.549652,120.237419 
	C263.701324,120.294632 268.856232,120.158165 274.005798,120.276947 
	C281.089783,120.440346 285.512329,124.241920 286.361267,131.356171 
	C287.050018,137.128189 287.109222,142.998917 286.315857,148.772644 
	C285.223480,156.722702 281.375031,159.839966 273.168182,159.904068 
	C268.348511,159.941711 263.523071,159.777893 258.709961,159.961182 
	C254.369476,160.126465 252.691818,158.052750 252.740753,153.961441 
	C252.798386,149.142609 252.742157,144.322418 252.733810,139.005341 
z"/>
<path fill="#E3F0F5" opacity="1.000000" stroke="none" 
	d="
M243.226669,149.746201 
	C241.608490,157.431274 238.840240,159.822281 231.608170,159.911301 
	C227.453918,159.962448 223.297302,159.967529 219.143677,159.890076 
	C212.465469,159.765533 208.745514,156.723419 208.306244,150.105865 
	C207.867462,143.495621 207.835983,136.807953 208.304443,130.202347 
	C208.754578,123.854935 212.697021,120.580864 219.239899,120.304428 
	C223.553070,120.122200 227.884277,120.144913 232.199921,120.293587 
	C239.003067,120.527931 241.853699,123.234787 243.038391,130.562759 
	C243.927368,137.055038 243.310974,143.189056 243.226669,149.746201 
z"/>
<path fill="#E2EFF4" opacity="1.000000" stroke="none" 
	d="
M174.997711,141.842636 
	C175.000458,143.473343 174.979538,144.639099 175.010178,145.803482 
	C175.128906,150.317230 176.791443,152.902374 181.975662,152.395920 
	C186.095718,151.993454 190.293793,152.238861 194.448990,152.404068 
	C196.889389,152.501114 198.782059,153.200012 198.682114,156.491684 
	C198.575851,159.991379 196.594452,159.990295 194.070541,159.946854 
	C188.745682,159.855164 183.415634,160.009537 178.092819,159.868851 
	C172.477005,159.720428 169.148209,156.819916 168.209717,151.250031 
	C166.956680,143.813370 167.334579,136.326752 168.258774,128.903198 
	C168.844757,124.196495 172.795746,120.705620 177.927017,120.406219 
	C183.733902,120.067406 189.574051,120.338844 195.397308,120.223000 
	C198.274689,120.165756 198.621948,121.919846 198.611099,124.118240 
	C198.600128,126.338402 198.173859,127.982742 195.305542,127.892937 
	C190.649811,127.747185 185.959946,128.175415 181.332428,127.788239 
	C176.540421,127.387299 175.188019,129.917953 175.018082,133.887711 
	C174.911407,136.379883 174.997894,138.880310 174.997711,141.842636 
z"/>
<path fill="#E0EDF3" opacity="1.000000" stroke="none" 
	d="
M296.933960,138.152618 
	C298.683075,136.637115 300.338196,136.137695 302.261719,136.155045 
	C309.078735,136.216492 315.898682,136.268997 322.713348,136.126495 
	C325.585693,136.066422 326.465515,137.194962 326.422729,139.956085 
	C326.382111,142.576660 325.793304,143.963989 322.799500,143.865906 
	C317.650574,143.697250 312.490448,143.780197 307.337524,143.883865 
	C305.925751,143.912262 303.721497,142.957779 303.828857,145.899109 
	C303.903992,147.957428 303.930450,149.765961 306.632050,150.369339 
	C311.565338,151.471191 316.462402,150.317123 321.374573,150.421509 
	C325.472626,150.508560 326.973206,151.919357 326.768951,156.025986 
	C326.618774,159.046005 325.625549,160.076279 322.608582,159.951233 
	C317.462494,159.737961 312.299896,159.963638 307.147156,159.859619 
	C300.925293,159.734009 298.025940,157.444321 296.693817,151.329468 
	C295.771423,147.095490 295.725372,142.769531 296.933960,138.152618 
z"/>
<path fill="#E0EDF3" opacity="1.000000" stroke="none" 
	d="
M278.172668,333.302612 
	C277.790588,332.673401 277.652161,332.435333 277.315979,332.089600 
	C273.187836,326.851440 274.375763,320.937988 274.863647,315.273499 
	C275.088898,312.658356 277.865479,311.932617 280.188507,311.516113 
	C287.783844,310.154388 295.380310,311.904633 302.995087,311.685547 
	C305.749298,311.606293 306.495026,314.461639 306.391266,316.911499 
	C306.282867,319.471619 304.845276,320.598236 302.126587,320.532715 
	C296.324585,320.392822 290.515991,320.451813 284.247131,320.550568 
	C283.783997,320.589996 283.649963,320.652649 283.606812,320.712708 
	C283.351990,322.171204 283.759369,323.452301 284.385681,325.036743 
	C284.461945,325.367157 284.556763,325.450195 284.596588,325.499023 
	C291.364746,327.082855 298.223175,326.217407 305.121399,327.084534 
	C305.231659,327.516693 305.359131,327.628326 305.403503,327.700500 
	C308.198486,333.899597 306.855408,336.457794 300.850464,336.481354 
	C295.902161,336.500763 290.953461,336.513153 286.005371,336.474518 
	C283.168213,336.452362 280.377045,336.201813 278.172668,333.302612 
z"/>
<path fill="#E2EFF4" opacity="1.000000" stroke="none" 
	d="
M193.985382,320.455688 
	C193.546600,320.363800 193.111145,320.263977 192.891296,320.303528 
	C190.033020,321.876923 187.264511,320.195496 184.692825,320.628906 
	C182.250183,321.040497 177.640045,318.880615 178.434280,324.928345 
	C178.566513,325.273621 178.635468,325.363312 178.672104,325.406433 
	C183.759567,326.829285 189.013779,325.241272 194.506958,326.507874 
	C196.397202,326.555847 197.859467,326.408661 199.353821,327.095398 
	C199.398911,327.533722 199.533127,327.464447 199.498886,327.531738 
	C202.190460,333.935913 200.771744,335.900330 194.578094,336.656067 
	C189.243195,337.307037 184.038879,336.048157 178.723709,336.729218 
	C174.475800,337.273468 170.241318,333.433685 169.202637,328.763000 
	C168.379227,325.060211 168.033432,321.295807 168.464890,317.435730 
	C168.868988,313.820404 170.763580,311.837555 174.153214,311.752808 
	C181.584091,311.567047 189.022034,310.565552 196.454987,311.548309 
	C200.638046,312.101410 201.304123,315.968567 197.570984,320.287964 
	C196.234100,320.499756 195.326553,320.462158 193.985382,320.455688 
z"/>
<path fill="#DAE9F0" opacity="1.000000" stroke="none" 
	d="
M265.600220,297.451904 
	C265.908691,309.379425 265.946564,320.974701 266.108337,332.568268 
	C266.148346,335.437164 264.869019,336.271881 262.192352,336.295959 
	C259.424927,336.320770 258.065643,335.677856 257.785126,332.506134 
	C256.833801,321.750763 257.720947,311.023285 257.872437,300.287750 
	C257.931335,296.113647 259.429810,295.572693 265.600220,297.451904 
z"/>
<path fill="#467E9C" opacity="1.000000" stroke="none" 
	d="
M339.829590,297.796509 
	C337.526581,306.581512 334.939575,315.130157 332.151306,324.343872 
	C329.511993,321.903870 329.592255,319.263672 328.878265,317.057953 
	C326.980835,311.196350 325.239136,305.279236 323.627594,299.332153 
	C322.735260,296.039215 320.375610,295.733521 317.806641,296.247650 
	C314.409393,296.927551 316.279327,299.317627 316.746643,300.954803 
	C319.489227,310.562683 322.343781,320.138702 325.181732,329.719208 
	C326.141296,332.958618 327.804749,335.736786 331.586945,335.706726 
	C335.091217,335.678925 336.740601,333.083038 337.756378,330.051697 
	C338.602966,327.525330 339.456207,325.001221 340.542419,322.209229 
	C340.983368,321.812714 341.188385,321.683105 341.660156,321.800995 
	C341.019958,325.042664 340.235443,328.081024 339.175964,331.020233 
	C337.754517,334.963470 335.357849,337.256439 330.593536,336.861603 
	C326.305878,336.506256 324.653900,334.067627 323.610565,330.532745 
	C320.682892,320.613983 317.706207,310.709442 314.828369,300.776306 
	C314.137726,298.392456 313.316071,295.868469 316.990723,294.856201 
	C320.468628,293.898132 323.410889,294.216522 324.687103,297.977325 
	C327.003967,304.804626 329.053467,311.722626 331.502869,319.520752 
	C333.894989,312.068787 336.015228,305.463806 338.188965,298.466187 
	C338.597046,297.699860 339.031433,297.528748 339.829590,297.796509 
z"/>
<path fill="#DAE9F0" opacity="1.000000" stroke="none" 
	d="
M304.155182,127.856384 
	C300.863129,127.079872 296.072601,130.152740 296.090607,123.857956 
	C296.097534,121.437729 296.862000,120.129333 299.498077,120.150154 
	C307.453247,120.212982 315.409607,120.228363 323.364594,120.159470 
	C326.096771,120.135811 326.711945,121.600197 326.698059,123.933197 
	C326.683075,126.449631 326.037445,127.976158 323.030121,127.898499 
	C316.901764,127.740257 310.766357,127.855095 304.155182,127.856384 
z"/>
<path fill="#295B7A" opacity="1.000000" stroke="none" 
	d="
M156.384750,317.641724 
	C154.781998,320.217224 154.641800,322.521240 156.459885,325.094452 
	C157.503296,326.571228 158.433655,328.159760 159.186142,329.802734 
	C160.290695,332.214386 162.719894,334.839264 159.155609,337.135040 
	C156.188538,339.046234 150.887024,337.692017 149.060013,334.666718 
	C147.179031,331.552032 145.148163,328.470276 143.752441,325.135742 
	C142.273056,321.601318 139.596466,321.687256 136.786560,322.131073 
	C133.635559,322.628754 135.324448,325.322052 135.013046,327.029907 
	C134.718384,328.646057 134.762299,330.361847 134.904861,332.012421 
	C135.274078,336.286621 132.839111,337.678619 129.163635,337.622253 
	C125.439270,337.565186 123.952995,335.508148 124.093430,331.796295 
	C124.269585,327.140503 124.082710,322.471954 124.105858,317.809174 
	C124.138939,311.145264 124.159523,311.141388 130.626129,311.042480 
	C131.791016,311.024689 132.956650,311.054871 134.570831,311.138184 
	C135.367096,311.665283 135.481674,312.168762 135.127121,313.049408 
	C127.372688,315.716553 127.367203,315.716553 127.375511,324.057251 
	C127.377991,326.551300 127.283470,329.048218 127.441383,331.538513 
	C127.515434,332.706299 127.654747,333.994934 129.260025,334.016876 
	C130.734039,334.037018 131.209915,332.923004 131.425797,331.719635 
	C131.780334,329.743347 131.519791,327.733948 131.650787,325.746307 
	C131.820374,323.173157 131.226013,320.246307 134.603424,319.044373 
	C138.101852,317.799377 142.985855,318.857300 145.158005,321.471344 
	C146.977951,323.661560 148.085632,326.298431 149.530258,328.724640 
	C150.210754,329.867523 150.867706,331.027832 151.660675,332.097717 
	C152.690079,333.486542 154.086700,335.003662 155.767975,334.081940 
	C158.023987,332.845184 155.990463,331.208954 155.415115,329.872314 
	C154.562103,327.890533 153.259384,326.123260 152.303864,324.187836 
	C150.241638,320.010651 150.992798,318.561310 156.384750,317.641724 
z"/>
<path fill="#B7D0DD" opacity="1.000000" stroke="none" 
	d="
M258.943390,418.615082 
	C258.202698,415.151642 258.353424,413.126190 262.519653,413.206024 
	C268.947968,413.329163 271.732544,414.575897 271.259277,418.491913 
	C270.969299,420.891479 271.397034,422.863739 272.053040,425.078735 
	C273.161072,428.819916 270.948639,431.458191 267.026825,431.580261 
	C265.529205,431.626862 264.026398,431.540497 262.530792,431.613647 
	C259.593170,431.757294 258.253082,430.632416 258.611908,427.492828 
	C258.931396,424.697540 258.851044,421.856567 258.943390,418.615082 
z"/>
<path fill="#295B7A" opacity="1.000000" stroke="none" 
	d="
M221.286530,330.184967 
	C216.457901,320.732574 212.537903,311.200256 209.166214,301.458313 
	C208.425949,299.319427 206.185532,296.495392 210.366013,294.909851 
	C214.371689,293.390564 217.799896,294.408356 219.434845,298.251190 
	C221.752655,303.699036 223.788757,309.266052 226.032639,314.746368 
	C226.754578,316.509583 227.159195,318.514740 229.363190,320.099457 
	C231.089615,316.055817 232.731049,312.211212 234.929977,308.387878 
	C236.922134,314.757538 233.014984,319.547028 230.313370,324.479706 
	C228.992905,326.890625 227.134766,324.595276 226.338776,322.968597 
	C224.511230,319.233826 223.152817,315.291443 221.593994,311.437469 
	C220.097397,307.737335 218.697540,303.994568 216.862442,300.442535 
	C216.073318,298.915100 214.930161,297.208771 213.091507,297.889709 
	C210.732407,298.763367 212.197159,300.760895 212.723495,302.133972 
	C215.580719,309.587921 218.612808,316.974182 221.557129,324.394714 
	C222.169006,325.936890 222.825089,327.484467 222.425537,329.567749 
	C222.062820,330.061249 221.849411,330.202362 221.286530,330.184967 
z"/>
<path fill="#29627E" opacity="1.000000" stroke="none" 
	d="
M340.333557,297.733185 
	C339.697601,298.043610 339.281586,298.054352 338.554016,298.069336 
	C339.254608,294.723450 341.989807,293.946716 344.854370,294.357056 
	C347.696655,294.764252 350.373535,295.416748 351.233582,299.335938 
	C352.587158,305.504303 354.835297,311.476410 357.155914,318.993103 
	C359.804382,311.094116 362.133209,304.719299 364.059326,298.225037 
	C365.629608,292.930817 369.771301,295.237701 372.741364,295.260803 
	C376.615204,295.290924 375.192657,298.672302 374.627472,300.565979 
	C372.618011,307.299133 370.249542,313.925140 367.701111,320.340912 
	C368.306976,313.488281 371.272705,307.478577 372.870361,301.077881 
	C373.279022,299.440704 375.398376,296.979187 372.092255,296.253235 
	C369.675446,295.722565 366.776611,295.243835 365.655365,298.979828 
	C363.463409,306.283051 361.019714,313.510956 358.659973,320.763428 
	C358.356384,321.696564 357.932373,322.590515 357.058929,324.753784 
	C354.422363,315.985260 352.127472,308.286499 349.789459,300.600891 
	C348.215942,295.428497 345.828644,294.628510 340.333557,297.733185 
z"/>
<path fill="#AAC9D7" opacity="1.000000" stroke="none" 
	d="
M250.391098,417.791870 
	C250.388855,420.027435 250.367950,421.844391 250.346817,423.661377 
	C250.260223,431.108948 248.342682,432.766449 241.087646,431.558411 
	C237.946930,431.035400 235.983795,429.423676 236.173859,425.913513 
	C236.272018,424.100555 236.343262,422.269073 236.200485,420.463867 
	C235.940994,417.183044 236.663986,413.978210 240.138245,413.524109 
	C243.890732,413.033630 248.710648,411.547089 250.391098,417.791870 
z"/>
<path fill="#225572" opacity="1.000000" stroke="none" 
	d="
M195.767944,320.224060 
	C199.296432,319.745697 199.392471,317.435883 199.216843,314.973389 
	C199.025314,312.287689 196.955429,312.489014 195.167511,312.480255 
	C188.528946,312.447754 181.889999,312.508728 175.251251,312.499115 
	C171.108566,312.493134 169.127960,314.478241 169.346664,318.650635 
	C169.459381,320.801300 169.332230,322.974518 169.581329,325.106262 
	C170.495056,332.925232 173.753204,335.829987 181.654724,335.960480 
	C185.305176,336.020782 188.957443,335.979736 192.608871,335.970154 
	C199.830353,335.951202 199.830338,335.947052 199.435623,327.995087 
	C202.486237,330.045959 201.007095,333.313873 200.399307,335.960815 
	C199.938293,337.968567 197.019150,336.921722 195.425735,337.403412 
	C189.973999,339.051422 184.712555,335.975342 179.265762,337.668518 
	C175.970016,338.692963 172.573364,336.570251 170.648010,333.797729 
	C166.405853,327.688873 167.124237,320.691406 168.384949,313.887238 
	C168.754837,311.890961 171.186752,310.926208 173.221115,311.079163 
	C181.116653,311.672760 188.940536,309.120453 196.906662,310.881165 
	C199.775330,311.515198 200.984024,312.446899 200.926941,315.316284 
	C200.868637,318.247162 201.214020,321.302216 196.381973,320.895325 
	C195.825043,320.702087 195.671631,320.558899 195.767944,320.224060 
z"/>
<path fill="#295B7A" opacity="1.000000" stroke="none" 
	d="
M145.106995,304.440674 
	C139.375931,304.859009 133.721268,304.888275 128.066544,304.902069 
	C126.067078,304.906982 124.135788,304.438110 124.299232,302.007080 
	C124.459290,299.626495 122.762589,296.459869 126.551468,295.221436 
	C132.888062,293.150299 139.359726,294.369781 145.782196,294.433167 
	C146.246429,294.437744 146.705826,294.903564 147.170395,294.909058 
	C151.758774,294.963562 156.750458,294.981171 158.616730,300.041290 
	C160.755646,305.840729 161.240250,311.960785 157.354004,317.840668 
	C156.893250,317.897156 156.753555,317.765564 156.404541,317.436401 
	C155.716263,314.872833 156.565903,312.640167 156.866547,310.349182 
	C157.942520,302.149933 154.773758,298.477966 146.543777,298.417023 
	C141.563309,298.380127 136.580505,298.317078 131.602203,298.470520 
	C130.200745,298.513733 128.199692,298.297516 128.163254,300.388580 
	C128.127686,302.430145 130.090302,302.366943 131.517181,302.503021 
	C135.639343,302.896088 139.820450,302.120453 144.277298,303.275787 
	C144.818192,303.652191 145.000778,303.848816 145.106995,304.440674 
z"/>
<path fill="#AFCDDC" opacity="1.000000" stroke="none" 
	d="
M294.032959,426.161560 
	C294.013794,427.169678 293.946136,427.818573 293.841797,428.461487 
	C293.641235,429.697510 293.934021,431.525574 291.975983,431.285187 
	C290.335785,431.083832 291.029846,429.423157 291.001343,428.389740 
	C290.919006,425.402924 290.746979,422.388062 291.058472,419.431427 
	C291.273865,417.386993 289.405121,414.080811 292.636963,413.528809 
	C295.684753,413.008270 299.316315,412.010101 302.082825,414.772675 
	C304.425995,417.112488 304.398682,420.133057 302.692444,422.477448 
	C301.086853,424.683563 302.423523,426.157288 302.757965,427.990509 
	C302.953827,429.064087 305.027924,430.431030 302.823761,431.226044 
	C301.348541,431.758240 300.626312,430.129303 300.074554,428.930145 
	C299.045441,426.693726 298.380005,424.020721 294.956451,424.872742 
	C294.573730,424.967957 294.294861,425.480530 294.032959,426.161560 
z"/>
<path fill="#AAC9D7" opacity="1.000000" stroke="none" 
	d="
M322.256104,427.280762 
	C322.223846,425.025665 322.211731,423.198547 322.216736,421.371460 
	C322.236633,414.091522 325.724701,411.387665 332.704529,413.385101 
	C335.214447,414.103394 336.748352,415.873596 336.060516,418.606384 
	C334.994263,422.842712 339.573700,428.917847 332.840881,431.144165 
	C329.156189,432.362610 324.448181,432.950165 322.256104,427.280762 
z"/>
<path fill="#AFCDDC" opacity="1.000000" stroke="none" 
	d="
M277.076050,418.352905 
	C277.709229,417.405304 277.986115,416.457703 278.411346,415.582184 
	C278.980896,414.409637 279.466309,413.151459 281.234192,413.296875 
	C282.662964,413.414398 283.262817,414.278381 283.666138,415.419891 
	C285.262848,419.939087 286.848877,424.462189 288.403137,428.996094 
	C288.663971,429.756927 288.940765,430.686981 287.910126,431.122498 
	C286.693573,431.636597 286.169769,430.671448 285.598907,429.860962 
	C282.672150,425.705750 279.351227,425.793365 276.263885,430.140411 
	C275.803619,430.788483 275.688477,431.771179 274.523193,431.376282 
	C272.953979,430.844452 273.819183,429.727112 274.035431,428.917084 
	C274.667999,426.547394 275.445221,424.216339 276.134644,421.200256 
	C276.069244,420.137787 276.097656,419.749329 276.287903,419.091858 
	C276.525543,418.674500 276.655701,418.529755 277.076050,418.352905 
z"/>
<path fill="#BCD6E3" opacity="1.000000" stroke="none" 
	d="
M307.831787,413.455688 
	C308.537781,413.380768 308.926727,413.347961 309.608459,413.326721 
	C311.992981,413.718567 314.112305,413.372223 316.540222,413.797211 
	C317.387573,414.634674 317.905273,415.253113 318.701721,415.998779 
	C319.944031,417.760162 319.321930,419.536926 319.271606,421.650024 
	C316.297791,424.453186 318.683685,426.892059 319.068939,429.306854 
	C319.182007,430.015472 320.119415,430.796692 318.900604,431.313019 
	C317.985016,431.700836 317.340637,431.211578 316.923340,430.376465 
	C316.558228,429.645844 316.194122,428.914185 315.804962,428.196320 
	C314.895081,426.517853 314.463257,424.426971 311.714569,424.722382 
	C308.547729,425.062744 310.357300,427.523346 309.820984,428.930603 
	C309.413422,429.999939 309.591766,431.435455 307.997559,431.262512 
	C306.615570,431.112610 307.016724,429.769348 307.013580,428.860535 
	C306.997742,424.233673 307.032410,419.606659 307.135742,414.523163 
	C307.319641,413.877075 307.417175,413.687469 307.831787,413.455688 
z"/>
<path fill="#AFCDDC" opacity="1.000000" stroke="none" 
	d="
M205.545395,421.188049 
	C206.420151,419.071899 207.117889,417.220184 207.745407,415.345001 
	C208.150864,414.133392 208.756393,413.331238 210.189041,413.302399 
	C211.602661,413.273926 212.378571,414.012238 212.783997,415.198090 
	C214.389664,419.894531 215.949982,424.606476 217.525711,429.313141 
	C217.734009,429.935242 218.025803,430.560822 217.220062,431.021332 
	C216.308060,431.542603 215.718094,431.119476 215.133194,430.435822 
	C210.836655,425.413666 209.048386,425.517395 205.184860,430.956299 
	C204.747269,431.572266 204.094208,431.618988 203.235504,431.058197 
	C202.859940,430.674438 202.665985,430.560669 202.743393,430.246643 
	C203.710968,427.633423 204.407166,425.220520 205.091583,422.426392 
	C205.166077,421.844299 205.252350,421.643433 205.545395,421.188049 
z"/>
<path fill="#225572" opacity="1.000000" stroke="none" 
	d="
M169.544220,297.386536 
	C169.398788,294.074280 171.811859,294.230621 173.891479,294.186951 
	C181.681122,294.023193 189.451782,294.047821 197.229431,294.963409 
	C201.309677,295.443756 200.789597,298.026855 200.943726,300.668091 
	C201.098770,303.325195 200.584061,304.574371 197.342361,305.128326 
	C188.873352,306.575623 180.544083,304.486267 172.139191,304.913239 
	C167.203995,305.164001 165.917389,302.110535 168.817139,297.137054 
	C170.581573,301.745209 173.736771,302.954712 178.283051,302.622070 
	C183.561966,302.235840 188.889633,302.657623 194.190857,302.451263 
	C195.757965,302.390259 197.897369,302.520172 197.884552,300.150330 
	C197.872681,297.955322 195.893372,297.677429 194.248795,297.604736 
	C186.134949,297.246094 178.016769,297.545258 169.544220,297.386536 
z"/>
<path fill="#225572" opacity="1.000000" stroke="none" 
	d="
M235.125122,308.102692 
	C236.071182,304.491119 236.870605,300.893677 238.466766,297.693604 
	C240.279816,294.058685 243.825943,293.428070 247.465286,294.578278 
	C251.355103,295.807617 249.876022,298.744415 248.957916,301.117371 
	C244.882278,311.651398 240.739975,322.161438 236.422302,332.597595 
	C235.938004,333.768127 235.268997,335.383484 233.065521,335.599854 
	C234.132339,327.706940 238.525833,321.128571 240.831726,313.727997 
	C242.107010,309.635071 244.020172,305.746399 245.502640,301.711975 
	C245.984543,300.400513 246.960327,298.684143 245.080582,297.786499 
	C243.193298,296.885254 242.042007,298.323151 241.091049,299.775024 
	C239.292526,302.520813 239.099792,306.146271 236.053497,308.530640 
	C235.599457,308.549896 235.464905,308.421112 235.125122,308.102692 
z"/>
<path fill="#D0E9F3" opacity="1.000000" stroke="none" 
	d="
M145.369812,423.372223 
	C145.224930,422.240936 145.187820,421.495605 145.209198,420.381042 
	C145.768433,418.260773 145.376160,416.461945 145.671967,414.327698 
	C146.005356,413.818481 146.218796,413.675110 146.813812,413.475647 
	C147.545532,413.410004 147.895660,413.400391 148.508530,413.393066 
	C150.537247,413.691467 152.324036,413.384583 154.472015,413.812958 
	C155.370255,414.665222 155.890030,415.283508 156.689285,416.029053 
	C157.885376,417.397552 157.365662,418.802551 157.198303,420.487671 
	C156.720276,421.195007 156.467148,421.556458 156.214020,421.917908 
	C159.496750,423.916656 159.031052,426.887329 157.552292,429.449280 
	C156.042526,432.065002 153.172165,431.760742 150.498367,431.295380 
	C149.249939,431.078125 147.959808,431.100464 146.355270,430.927551 
	C144.941895,428.549042 145.799988,426.108246 145.369812,423.372223 
z"/>
<path fill="#C8E3EF" opacity="1.000000" stroke="none" 
	d="
M222.612366,427.607422 
	C226.221008,429.985291 229.223206,430.056030 230.986404,425.380310 
	C229.958328,424.056244 228.692734,424.725616 227.458282,424.056519 
	C227.200150,423.438385 227.176437,423.118683 227.238220,422.553406 
	C228.702576,420.692596 230.559998,421.844727 232.584320,421.802002 
	C232.963425,422.029449 232.923752,422.049286 232.924698,422.071411 
	C234.046036,424.710327 233.264679,427.447571 233.244171,430.537415 
	C232.432358,431.588104 231.838699,430.847168 231.264145,430.909882 
	C227.576752,431.312317 222.486938,433.381348 220.857544,429.484222 
	C218.949768,424.921265 218.816833,419.263824 221.614304,414.055237 
	C224.655060,413.141327 227.369507,413.635620 230.457672,413.794434 
	C230.605698,414.993286 235.213150,416.399384 230.340866,416.869507 
	C229.054001,415.907501 227.801514,416.007233 226.279236,415.926270 
	C225.133667,416.116791 224.293732,416.330505 223.188263,416.748840 
	C221.986908,420.344086 222.686157,423.799103 222.612366,427.607422 
z"/>
<path fill="#256895" opacity="1.000000" stroke="none" 
	d="
M284.247681,320.744080 
	C289.301910,318.962952 294.950958,320.081512 300.533997,319.849518 
	C303.329041,319.733337 305.425690,319.574371 305.330322,315.899109 
	C305.237396,312.317841 302.920624,312.513123 300.541626,312.515015 
	C294.216003,312.520020 287.889679,312.593170 281.564972,312.522491 
	C277.154480,312.473175 275.239014,314.463318 275.341278,318.913513 
	C275.437469,323.100403 275.524261,327.234070 277.165680,331.562622 
	C271.634308,329.620331 274.000854,324.447845 273.944977,320.854919 
	C273.803406,311.741608 277.399323,308.980927 287.372223,310.176544 
	C292.323853,310.770233 297.234650,311.152527 302.174255,311.028442 
	C306.155762,310.928406 306.751190,313.053467 306.871857,316.347321 
	C307.002502,319.913147 305.530640,321.038666 302.164124,320.947235 
	C296.350372,320.789368 290.529358,320.900085 284.247681,320.744080 
z"/>
<path fill="#AAC9D7" opacity="1.000000" stroke="none" 
	d="
M202.604309,430.227844 
	C203.014786,430.046356 203.041794,430.416901 203.047836,430.602539 
	C202.223450,430.416199 201.609909,430.734955 200.823959,431.151428 
	C199.166641,432.029572 197.039978,432.089417 195.556427,431.389099 
	C192.141373,429.777008 196.667465,429.037598 196.262634,427.438416 
	C195.206558,423.266571 198.413849,418.250488 193.316772,414.598816 
	C194.125763,414.040833 195.393585,413.262299 196.592545,413.356842 
	C198.755157,413.527405 203.678177,411.578552 199.838028,417.352570 
	C197.759186,420.478333 199.729675,428.174744 202.604309,430.227844 
z"/>
<path fill="#225572" opacity="1.000000" stroke="none" 
	d="
M304.596497,304.906464 
	C295.876862,305.587585 287.579895,304.270935 279.282227,305.640869 
	C277.031464,306.012451 273.614075,305.439667 273.905762,301.043854 
	C274.141174,297.496613 274.283295,294.843445 278.936523,294.975128 
	C286.596069,295.191925 294.266357,295.008148 301.931854,295.049683 
	C303.711731,295.059326 306.266724,294.680817 306.521149,296.947845 
	C306.814850,299.564606 308.613159,302.836548 304.596497,304.906464 
z"/>
<path fill="#AFCDDC" opacity="1.000000" stroke="none" 
	d="
M341.890442,420.666809 
	C343.847473,420.933472 345.499878,420.998413 347.152374,421.001801 
	C350.110962,421.007904 351.760925,422.422394 351.996033,425.404053 
	C352.245148,428.563019 351.364319,430.843567 347.777313,431.399536 
	C344.845001,431.854065 342.126648,431.494476 338.826080,430.146240 
	C340.956940,428.566284 342.801636,429.175598 344.480835,429.016846 
	C346.475403,428.828369 349.158020,429.767242 349.102661,426.242920 
	C349.053833,423.137207 346.700043,423.588989 344.787354,423.670471 
	C340.621674,423.847992 338.529663,422.112427 339.040283,417.395020 
	C339.895508,415.779388 340.796997,415.198425 341.411621,417.015625 
	C341.770050,418.075287 341.387299,419.297516 341.890442,420.666809 
z"/>
<path fill="#D0E9F3" opacity="1.000000" stroke="none" 
	d="
M169.227997,422.659241 
	C168.594559,425.740204 168.171677,428.446625 167.748657,431.154022 
	C167.057465,431.179138 166.066208,431.063904 166.172501,430.391876 
	C167.083389,424.633789 163.459412,420.648865 160.774780,416.314941 
	C160.321442,415.583130 159.639740,414.945618 160.381271,414.237915 
	C161.393326,413.272064 161.938248,414.342316 162.756699,414.884064 
	C165.024216,416.384918 164.046890,420.120758 167.478745,420.918274 
	C168.984222,420.655548 169.386963,421.270233 169.227997,422.659241 
z"/>
<path fill="#C8E3EF" opacity="1.000000" stroke="none" 
	d="
M192.776581,414.153534 
	C192.888992,414.425842 192.849548,414.514832 192.879639,414.553040 
	C192.909729,414.591217 193.001663,414.795227 192.917145,414.868530 
	C192.254044,415.639435 191.438278,415.806763 190.292343,415.939819 
	C189.978455,415.942017 189.495285,415.950867 189.254822,415.974457 
	C186.211639,419.487885 188.073395,423.442474 187.843460,427.588135 
	C187.809341,428.520355 187.830582,429.058594 187.848907,429.971008 
	C185.679550,432.130646 185.074677,431.090637 185.174500,428.434387 
	C185.285187,427.845886 185.356445,427.669861 185.313034,427.233093 
	C185.168869,425.594391 185.139389,424.216461 185.155182,422.427124 
	C185.717667,420.911072 185.476303,419.748566 185.325714,418.283691 
	C185.155548,417.793549 185.120239,417.622955 185.062286,417.192047 
	C184.860672,416.785919 184.681686,416.640106 184.279419,416.229675 
	C183.876053,415.955902 183.695999,415.946808 183.245941,415.922363 
	C182.054657,415.926025 181.273438,415.665344 180.744507,414.491486 
	C181.091995,413.524353 181.752670,413.537811 182.706573,413.516449 
	C183.461395,413.496979 183.896149,413.446350 184.657410,413.442383 
	C186.773972,413.509888 188.564011,413.541748 190.689789,413.493500 
	C191.571716,413.624573 192.117950,413.752899 192.776581,414.153534 
z"/>
<path fill="#256895" opacity="1.000000" stroke="none" 
	d="
M145.365479,305.027527 
	C145.030624,304.835846 144.990692,304.471039 144.973450,304.288391 
	C147.903763,301.901337 150.386383,302.681763 151.731689,305.789246 
	C153.075348,308.892914 152.124985,311.837433 148.860001,313.181854 
	C144.498520,314.977783 139.951340,315.394623 135.216049,312.936829 
	C134.963455,312.210358 134.970169,311.925049 135.009277,311.426880 
	C138.150406,311.149628 141.281357,311.097198 144.411621,311.017914 
	C146.352188,310.968750 148.429672,311.339111 149.001709,308.518555 
	C149.602936,305.554108 146.701401,306.403320 145.365479,305.027527 
z"/>
<path fill="#256895" opacity="1.000000" stroke="none" 
	d="
M342.240997,321.887085 
	C341.735443,322.031311 341.543976,322.014130 341.065430,321.969635 
	C341.854889,318.487396 342.931427,315.032410 344.007965,311.577454 
	C344.365479,311.537201 344.722961,311.496979 345.080444,311.456757 
	C346.783417,317.039307 348.486389,322.621857 350.205933,328.599091 
	C350.015656,329.165253 349.808807,329.336761 349.274841,329.272827 
	C347.175659,325.309784 346.967896,320.996063 344.620361,317.485107 
	C343.278625,318.580658 343.093048,320.238922 342.240997,321.887085 
z"/>
<path fill="#256895" opacity="1.000000" stroke="none" 
	d="
M277.836578,333.331055 
	C285.927460,338.102570 294.882874,335.803040 303.415131,335.568512 
	C307.239227,335.463440 304.967590,331.030365 305.416870,328.156677 
	C308.238831,330.056610 306.830414,333.139709 306.399963,335.636322 
	C306.039795,337.725128 303.309875,336.772278 301.649078,336.809875 
	C295.881958,336.940552 290.107361,336.965332 284.341370,336.812500 
	C281.817993,336.745575 279.001923,336.794647 277.836578,333.331055 
z"/>
<path fill="#99BACB" opacity="1.000000" stroke="none" 
	d="
M342.093140,420.502686 
	C339.682220,420.515900 342.622314,416.840179 339.391418,416.858398 
	C340.640350,413.836578 347.848572,411.594849 350.336304,413.542786 
	C350.658661,413.795166 350.864105,414.363068 350.888306,414.797913 
	C350.953156,415.963104 349.976746,416.072968 349.191162,416.107208 
	C347.722076,416.171234 346.246124,416.051636 344.773254,416.058777 
	C341.924316,416.072571 341.541138,417.812317 342.093140,420.502686 
z"/>
<path fill="#29627E" opacity="1.000000" stroke="none" 
	d="
M178.744980,324.895386 
	C175.856705,324.928772 176.891479,322.812866 176.937653,321.416931 
	C177.004471,319.397705 178.821457,319.932861 180.018753,319.915527 
	C184.005920,319.857819 187.994934,319.927094 192.327332,320.145355 
	C190.849274,323.600677 188.238541,321.626465 185.889114,321.360931 
	C182.935547,321.027100 179.939636,320.582611 178.744980,324.895386 
z"/>
<path fill="#29627E" opacity="1.000000" stroke="none" 
	d="
M195.254700,326.739563 
	C189.571106,327.014557 184.088486,328.031342 178.714020,325.870361 
	C183.882660,324.882843 189.054474,324.380890 194.572144,326.030151 
	C195.155609,326.243317 195.325470,326.380402 195.254700,326.739563 
z"/>
<path fill="#99BACB" opacity="1.000000" stroke="none" 
	d="
M169.308121,422.849731 
	C168.828918,422.409698 168.640427,421.785645 168.147049,421.022034 
	C169.084854,417.950958 170.056808,414.813629 173.760971,412.780396 
	C173.729874,417.221436 170.898315,419.621796 169.308121,422.849731 
z"/>
<path fill="#256895" opacity="1.000000" stroke="none" 
	d="
M305.271057,327.115906 
	C298.438873,326.473663 291.486115,328.295685 284.689453,325.960205 
	C291.543060,325.665924 298.450989,325.761261 305.271057,327.115906 
z"/>
<path fill="#29627E" opacity="1.000000" stroke="none" 
	d="
M353.836121,335.806610 
	C358.988525,336.847076 362.027069,334.679993 364.008698,329.916382 
	C365.373077,336.184082 359.930359,338.413574 353.836121,335.806610 
z"/>
<path fill="#467E9C" opacity="1.000000" stroke="none" 
	d="
M243.340683,149.887909 
	C243.020355,144.082870 243.026611,137.983398 243.075195,131.414948 
	C245.005081,137.111588 243.848373,143.366913 243.340683,149.887909 
z"/>
<path fill="#8DADC0" opacity="1.000000" stroke="none" 
	d="
M188.000458,427.722290 
	C186.958298,423.982361 186.127365,419.982605 188.613647,416.042542 
	C187.296661,419.718109 188.580368,423.648041 188.000458,427.722290 
z"/>
<path fill="#225572" opacity="1.000000" stroke="none" 
	d="
M276.968140,418.273438 
	C277.366272,418.320801 277.364838,418.735992 277.210663,418.875000 
	C276.522430,419.390167 276.500671,419.999786 276.221130,420.813232 
	C276.087219,421.073486 276.170135,421.036560 276.200928,421.069366 
	C275.499146,419.772095 273.539551,422.641907 273.246887,420.319397 
	C272.898346,417.553406 275.120087,418.398071 276.968140,418.273438 
z"/>
<path fill="#467E9C" opacity="1.000000" stroke="none" 
	d="
M222.759735,427.544128 
	C221.318848,424.537567 222.170120,420.989136 222.600281,417.212219 
	C222.886200,420.333435 222.849686,423.713440 222.759735,427.544128 
z"/>
<path fill="#467E9C" opacity="1.000000" stroke="none" 
	d="
M233.383011,430.726440 
	C233.026016,428.293060 232.998093,425.635864 232.947906,422.536102 
	C235.047333,424.722656 233.665298,427.679413 233.383011,430.726440 
z"/>
<path fill="#467E9C" opacity="1.000000" stroke="none" 
	d="
M230.689819,413.651886 
	C228.190811,413.999756 225.529541,413.983826 222.427246,413.920715 
	C224.725510,412.105255 227.657700,413.151489 230.689819,413.651886 
z"/>
<path fill="#99BACB" opacity="1.000000" stroke="none" 
	d="
M145.146942,423.403931 
	C146.632507,425.212952 145.659103,427.682068 146.005615,430.428619 
	C143.968018,428.744293 145.435883,426.150909 145.146942,423.403931 
z"/>
<path fill="#29627E" opacity="1.000000" stroke="none" 
	d="
M365.757141,326.509216 
	C365.125122,324.480347 365.983948,322.825897 366.951355,320.931580 
	C368.692200,323.032837 366.926605,324.731110 365.757141,326.509216 
z"/>
<path fill="#225572" opacity="1.000000" stroke="none" 
	d="
M232.737457,335.735077 
	C230.606308,337.754639 228.063004,336.913818 225.578415,335.981812 
	C227.485550,334.454285 229.472672,334.786133 231.808441,335.081818 
	C232.293839,335.303284 232.420303,335.426941 232.737457,335.735077 
z"/>
<path fill="#8DADC0" opacity="1.000000" stroke="none" 
	d="
M226.224884,416.164459 
	C227.360779,414.781860 228.695511,414.676666 230.021545,416.428406 
	C228.886887,416.640900 227.681519,416.533386 226.224884,416.164459 
z"/>
<path fill="#182931" opacity="1.000000" stroke="none" 
	d="
M205.433548,420.922028 
	C205.808334,421.271881 205.730942,421.576263 205.299927,421.945923 
	C204.071182,422.303680 203.133484,423.485229 202.026627,422.369476 
	C201.754944,422.095581 201.502960,421.411011 201.652390,421.173828 
	C202.645432,419.597656 203.971497,421.338593 205.433548,420.922028 
z"/>
<path fill="#467E9C" opacity="1.000000" stroke="none" 
	d="
M316.696960,413.650940 
	C314.768005,413.919922 312.666107,413.823639 310.232788,413.532837 
	C312.104492,412.765350 314.312592,412.812164 316.696960,413.650940 
z"/>
<path fill="#225572" opacity="1.000000" stroke="none" 
	d="
M225.223633,335.757507 
	C223.455444,335.941437 222.442001,335.217102 222.451813,333.135315 
	C224.000641,332.807709 224.931625,333.426758 225.645386,334.855469 
	C225.625076,335.317932 225.510300,335.443451 225.223633,335.757507 
z"/>
<path fill="#467E9C" opacity="1.000000" stroke="none" 
	d="
M154.730927,413.696930 
	C153.088959,413.961273 151.327423,413.875610 149.168579,413.592621 
	C150.712494,412.718109 152.659973,412.796417 154.730927,413.696930 
z"/>
<path fill="#8DADC0" opacity="1.000000" stroke="none" 
	d="
M190.612274,413.347717 
	C189.268890,414.534393 187.402664,414.079437 185.270233,413.693420 
	C186.722321,413.392456 188.460693,413.295837 190.612274,413.347717 
z"/>
<path fill="#467E9C" opacity="1.000000" stroke="none" 
	d="
M319.400635,421.823547 
	C319.092773,420.357422 319.083374,418.661804 319.027222,416.546082 
	C320.792450,417.742035 319.798218,419.726868 319.400635,421.823547 
z"/>
<path fill="#256895" opacity="1.000000" stroke="none" 
	d="
M284.664001,325.000488 
	C281.954010,324.708160 282.961243,322.794128 283.274475,321.001953 
	C283.997803,322.059784 284.431946,323.346771 284.664001,325.000488 
z"/>
<path fill="#295B7A" opacity="1.000000" stroke="none" 
	d="
M232.768738,421.704346 
	C231.332428,422.091431 229.701447,422.153351 227.664612,422.263977 
	C228.669922,419.947968 230.716339,421.200775 232.768738,421.704346 
z"/>
<path fill="#99BACB" opacity="1.000000" stroke="none" 
	d="
M181.031067,413.912659 
	C181.702850,414.625916 182.198624,415.052887 182.835175,415.693420 
	C181.373276,416.865082 180.387436,416.455261 180.187988,414.311035 
	C180.497375,413.896179 180.676224,413.761261 181.031067,413.912659 
z"/>
<path fill="#99BACB" opacity="1.000000" stroke="none" 
	d="
M145.968689,413.932953 
	C145.990509,415.977173 145.855942,417.708282 145.494537,419.725586 
	C145.204910,418.312744 145.142136,416.613678 145.185349,414.500977 
	C145.464981,413.931488 145.638657,413.775635 145.968689,413.932953 
z"/>
<path fill="#467E9C" opacity="1.000000" stroke="none" 
	d="
M157.304886,420.705170 
	C156.996109,419.533386 157.018829,418.233215 157.005157,416.544678 
	C158.774811,417.390625 157.906372,419.028900 157.304886,420.705170 
z"/>
<path fill="#8DADC0" opacity="1.000000" stroke="none" 
	d="
M190.168243,416.149658 
	C190.719849,415.608643 191.461258,415.275299 192.517654,414.941895 
	C192.635513,416.511200 191.582230,416.583649 190.168243,416.149658 
z"/>
<path fill="#225572" opacity="1.000000" stroke="none" 
	d="
M195.373169,327.057739 
	C195.014069,326.961609 195.008286,326.533447 194.997009,326.319824 
	C196.526779,326.053223 198.138840,325.517426 199.443451,327.151184 
	C198.176697,327.407104 196.954468,327.280487 195.373169,327.057739 
z"/>
<path fill="#29627E" opacity="1.000000" stroke="none" 
	d="
M351.612610,333.905731 
	C352.319580,333.931274 352.831268,334.289612 353.376282,334.895386 
	C352.268158,335.893036 351.512787,335.792725 351.612610,333.905731 
z"/>
<path fill="#8DADC0" opacity="1.000000" stroke="none" 
	d="
M185.086395,418.361633 
	C186.112839,419.062988 185.934662,420.286591 185.397705,421.772095 
	C185.127625,420.930206 185.054779,419.844635 185.086395,418.361633 
z"/>
<path fill="#467E9C" opacity="1.000000" stroke="none" 
	d="
M227.355927,424.103210 
	C228.421722,423.951813 229.554626,424.150330 230.799805,424.672546 
	C229.749054,424.815186 228.586044,424.634155 227.355927,424.103210 
z"/>
<path fill="#8DADC0" opacity="1.000000" stroke="none" 
	d="
M181.453552,414.159851 
	C181.207077,414.198914 180.765091,414.102844 180.541809,414.066986 
	C180.747665,412.986786 181.658768,413.262421 182.745270,413.397705 
	C182.584442,413.738647 182.142242,413.929718 181.453552,414.159851 
z"/>
<path fill="#225572" opacity="1.000000" stroke="none" 
	d="
M220.977539,330.358276 
	C221.140335,330.019592 221.343643,330.012756 221.851898,329.996521 
	C222.651978,330.359863 222.906113,330.874969 223.034485,331.760437 
	C222.881027,332.197418 222.724289,332.340363 222.332764,332.697327 
	C221.072601,332.494446 221.116394,331.557739 220.977539,330.358276 
z"/>
<path fill="#29627E" opacity="1.000000" stroke="none" 
	d="
M348.996155,329.409760 
	C349.159943,329.026703 349.372162,329.016022 349.903442,328.999512 
	C350.424774,329.584625 350.627014,330.175537 350.730103,331.069946 
	C348.959412,331.982147 349.232513,330.652313 348.996155,329.409760 
z"/>
<path fill="#467E9C" opacity="1.000000" stroke="none" 
	d="
M146.420044,414.074951 
	C146.125061,414.246094 145.708374,414.165039 145.499847,414.126221 
	C145.326248,413.075470 146.060806,413.125763 146.977158,413.270142 
	C147.035278,413.581024 146.875153,413.742432 146.420044,414.074951 
z"/>
<path fill="#29627E" opacity="1.000000" stroke="none" 
	d="
M364.797485,329.253204 
	C364.542389,328.662964 364.611359,328.228210 364.884949,327.679749 
	C365.659180,328.170563 365.831177,328.782013 364.797485,329.253204 
z"/>
<path fill="#29627E" opacity="1.000000" stroke="none" 
	d="
M195.698959,319.939880 
	C196.017685,320.032440 196.002548,320.439362 195.990509,320.642334 
	C195.413574,320.829498 194.848694,320.813721 193.915192,320.580841 
	C194.157806,320.191650 194.769012,320.019501 195.698959,319.939880 
z"/>
<path fill="#8DADC0" opacity="1.000000" stroke="none" 
	d="
M184.165390,416.176300 
	C184.367126,416.105927 184.678146,416.246857 185.014404,416.659729 
	C184.724899,416.834351 184.469894,416.652985 184.165390,416.176300 
z"/>
<path fill="#467E9C" opacity="1.000000" stroke="none" 
	d="
M307.900024,413.320190 
	C308.103241,413.722748 307.929749,413.918762 307.425262,414.034119 
	C307.365112,413.786713 307.508148,413.506775 307.900024,413.320190 
z"/>
<path fill="#29627E" opacity="1.000000" stroke="none" 
	d="
M350.847412,332.969177 
	C351.042908,332.898010 350.962677,333.014587 350.972198,332.983887 
	C350.981720,332.953186 350.911438,333.355957 350.911438,333.355957 
	C350.911438,333.355957 350.651947,333.040344 350.847412,332.969177 
z"/>
<path fill="#8DADC0" opacity="1.000000" stroke="none" 
	d="
M185.107208,427.236145 
	C185.298004,427.256287 185.397675,427.540253 185.355621,427.923065 
	C185.147980,427.847931 185.082031,427.673920 185.107208,427.236145 
z"/>
<path fill="#8DADC0" opacity="1.000000" stroke="none" 
	d="
M187.905426,430.459900 
	C187.846008,430.345154 187.877945,430.390594 187.851868,430.397675 
	C187.825806,430.404755 188.131943,430.398102 188.131943,430.398102 
	C188.131943,430.398102 187.964844,430.574615 187.905426,430.459900 
z"/>
<path fill="#060B0E" opacity="1.000000" stroke="none" 
	d="
M265.152222,152.323151 
	C262.031250,152.614639 260.269104,152.250427 260.419403,148.771057 
	C260.670441,142.960739 260.610352,137.126816 260.416046,131.311676 
	C260.316833,128.341400 261.528412,127.603165 264.227203,127.805489 
	C266.873383,128.003860 269.556030,127.985779 272.205658,127.808624 
	C276.625671,127.513115 278.738007,129.495621 278.740723,133.868042 
	C278.743073,137.693085 278.860779,141.521255 278.744232,145.342453 
	C278.563873,151.255600 277.465668,152.267410 271.613556,152.327728 
	C269.617798,152.348312 267.621643,152.331833 265.152222,152.323151 
z"/>
<path fill="#020303" opacity="1.000000" stroke="none" 
	d="
M215.605377,146.717880 
	C215.586380,142.087952 215.608521,137.932190 215.566956,133.777054 
	C215.526566,129.740280 217.099091,127.506775 221.516144,127.830383 
	C224.328171,128.036392 227.198349,128.126892 229.988007,127.801964 
	C234.240845,127.306625 235.866165,129.587173 235.944717,133.195602 
	C236.058807,138.436722 236.480103,143.718094 235.303421,148.916428 
	C235.159714,149.551254 235.200226,150.505753 234.801468,150.762558 
	C229.940369,153.893234 224.537582,151.907761 219.385590,152.122864 
	C216.581635,152.239944 215.677200,149.769501 215.605377,146.717880 
z"/>
<path fill="#E3F0F5" opacity="1.000000" stroke="none" 
	d="
M134.529160,312.576294 
	C138.584839,312.565735 142.190750,312.656433 145.797241,312.698212 
	C148.716370,312.732056 150.988373,312.021759 151.101318,308.421356 
	C151.222183,304.568756 149.131058,303.568176 145.372406,304.021271 
	C139.971008,304.027802 134.985489,303.880524 130.000687,303.901001 
	C127.476295,303.911377 125.924873,303.370667 125.874939,300.352783 
	C125.825508,297.364624 127.228310,296.698425 129.830276,296.735809 
	C135.816574,296.821747 141.805588,296.697784 147.792740,296.749176 
	C155.114410,296.812012 157.561310,299.116119 158.362030,306.419403 
	C158.754684,310.000732 158.076553,313.361328 156.351013,316.905151 
	C151.912292,318.877502 151.405869,321.381531 154.190353,324.964905 
	C155.504089,326.655579 156.495605,328.635040 157.404205,330.590057 
	C158.141510,332.176544 160.702652,334.239655 158.122025,335.539398 
	C156.027618,336.594238 152.821655,337.021606 151.048279,334.009491 
	C149.022202,330.568176 147.083527,327.075500 145.070389,323.626434 
	C143.159241,320.352051 137.725677,318.631042 134.412308,320.061401 
	C132.937881,320.697906 133.151901,321.862183 133.124023,322.967072 
	C133.048431,325.961731 132.976105,328.959717 133.038696,331.953552 
	C133.091354,334.471771 132.534073,336.019073 129.481689,336.033264 
	C126.455231,336.047424 125.839432,334.579224 125.884209,332.020569 
	C125.962822,327.528168 126.168518,323.010529 125.804581,318.545532 
	C125.434998,314.011353 126.924782,311.976593 131.586578,312.680664 
	C132.397873,312.803223 133.247650,312.670990 134.529160,312.576294 
z"/>
<path fill="#0B141A" opacity="1.000000" stroke="none" 
	d="
M261.411377,426.225037 
	C262.041901,421.636383 265.189453,423.988983 267.220093,423.696899 
	C269.015106,423.438690 269.156647,424.952026 269.162903,426.357727 
	C269.171021,428.179565 268.282898,429.322998 266.511597,429.015442 
	C264.666229,428.695038 261.507812,430.773987 261.411377,426.225037 
z"/>
<path fill="#182931" opacity="1.000000" stroke="none" 
	d="
M261.825256,416.532898 
	C262.542297,416.156738 263.055817,416.011932 263.497864,416.131409 
	C265.269135,416.610077 268.256561,415.096405 268.191772,418.706207 
	C268.139893,421.593872 265.893890,420.533661 264.242462,420.796844 
	C260.309814,421.423431 261.443268,418.876343 261.825256,416.532898 
z"/>
<path fill="#E2EFF4" opacity="1.000000" stroke="none" 
	d="
M223.231445,332.279205 
	C222.862213,331.515289 222.686661,330.976105 222.333984,330.212036 
	C218.509048,320.696564 214.779877,311.436432 211.284348,302.088898 
	C210.612137,300.291290 207.906937,297.650604 211.352188,296.315521 
	C214.391068,295.137909 216.917542,296.301819 218.244125,299.990814 
	C220.721542,306.879974 223.692062,313.593170 226.513153,320.356354 
	C227.132339,321.840729 227.404251,323.545685 229.373367,325.123444 
	C231.533524,319.730957 233.600510,314.571045 235.700760,309.044922 
	C237.119385,305.480286 238.500381,302.279968 239.892105,299.084320 
	C240.493774,297.702789 241.053894,296.190094 242.878937,296.128784 
	C244.508224,296.074005 246.419785,295.464935 247.672379,296.731323 
	C248.951279,298.024292 247.699631,299.558228 247.176056,300.879700 
	C243.317337,310.618835 239.443390,320.352478 235.469971,330.045135 
	C234.789795,331.704315 233.611542,333.159271 232.415375,334.944092 
	C230.288544,335.949249 228.394852,336.302124 226.097839,335.287781 
	C224.968262,334.296265 224.196701,333.400116 223.231445,332.279205 
z"/>
<path fill="#0B141A" opacity="1.000000" stroke="none" 
	d="
M243.136200,416.311920 
	C246.214752,416.041199 247.662735,416.952454 247.403778,419.884552 
	C247.259384,421.519470 247.288284,423.188568 247.429916,424.825745 
	C247.690292,427.835297 246.880676,429.198730 243.395508,429.197937 
	C239.883591,429.197144 239.096695,427.798248 239.333389,424.781891 
	C239.474808,422.979614 239.419479,421.154297 239.340729,419.344238 
	C239.235214,416.918823 240.483917,416.104370 243.136200,416.311920 
z"/>
<path fill="#020303" opacity="1.000000" stroke="none" 
	d="
M297.080231,422.031616 
	C293.259521,422.605042 294.123444,420.252472 294.028717,418.364716 
	C293.915802,416.114960 295.337280,415.884186 296.900604,416.010956 
	C298.606720,416.149292 300.568359,416.272675 300.916382,418.526489 
	C301.311096,421.082947 300.077515,422.267487 297.080231,422.031616 
z"/>
<path fill="#010101" opacity="1.000000" stroke="none" 
	d="
M333.304993,420.198730 
	C333.305023,421.996735 333.232025,423.326721 333.327423,424.644501 
	C333.531769,427.466339 333.202423,429.262115 329.449829,429.159271 
	C325.876984,429.061371 324.667877,427.831238 325.040710,424.455231 
	C325.203278,422.983032 325.103363,421.477203 325.062195,419.988312 
	C325.003448,417.862427 325.057037,415.937439 328.020996,415.969879 
	C330.713867,415.999420 333.639832,415.514832 333.304993,420.198730 
z"/>
<path fill="#020303" opacity="1.000000" stroke="none" 
	d="
M282.864746,421.445160 
	C283.612549,424.769012 281.502319,424.378204 279.986115,424.088318 
	C278.033478,423.714996 279.113739,422.312561 279.513214,421.374573 
	C280.001862,420.227295 279.505096,418.688751 280.875824,417.830017 
	C282.611328,418.279358 281.776886,420.189667 282.864746,421.445160 
z"/>
<path fill="#010101" opacity="1.000000" stroke="none" 
	d="
M276.397522,420.982849 
	C275.583008,420.357330 275.869507,419.768127 276.720947,419.114868 
	C276.940277,419.640076 276.824066,420.266144 276.397522,420.982849 
z"/>
<path fill="#020303" opacity="1.000000" stroke="none" 
	d="
M313.762756,415.720703 
	C316.810059,416.531769 317.979248,418.383087 316.554199,420.860260 
	C315.255768,423.117279 312.607269,422.257080 310.714691,421.818451 
	C308.689880,421.349091 310.535919,419.307739 310.012512,417.971832 
	C309.262543,416.057495 310.766357,415.878632 312.587036,415.875244 
	C313.149506,415.752991 313.324677,415.689240 313.762756,415.720703 
z"/>
<path fill="#99BACB" opacity="1.000000" stroke="none" 
	d="
M313.923187,415.673492 
	C313.850525,415.868011 313.675415,415.920074 313.237305,415.894409 
	C313.256470,415.721466 313.538605,415.626251 313.923187,415.673492 
z"/>
<path fill="#060B0E" opacity="1.000000" stroke="none" 
	d="
M210.726562,418.233704 
	C211.604828,420.221649 212.208191,421.916534 212.823151,423.644073 
	C211.194168,424.723663 209.661591,424.092987 207.447311,423.955078 
	C208.605942,421.635590 209.528793,419.788116 210.726562,418.233704 
z"/>
<path fill="#DAE9F0" opacity="1.000000" stroke="none" 
	d="
M169.103302,297.096161 
	C178.415878,295.695770 187.697342,296.685547 196.954895,296.609802 
	C199.139053,296.591919 199.648209,298.076996 199.622421,299.972778 
	C199.595779,301.929901 199.425049,303.812958 196.883911,303.827850 
	C188.593704,303.876404 180.297409,304.015594 172.014877,303.755676 
	C168.018555,303.630310 169.711670,300.174530 169.307327,297.569916 
	C169.206726,297.170410 169.018265,297.001953 169.103302,297.096161 
z"/>
<path fill="#060B0E" opacity="1.000000" stroke="none" 
	d="
M148.232086,424.183716 
	C148.595764,423.719971 148.877045,423.631592 149.587036,423.434692 
	C151.415024,423.687988 152.848892,423.417694 154.662598,423.701233 
	C156.856979,428.973846 156.634048,429.165283 148.513489,429.020874 
	C146.886795,427.460632 148.310394,426.020935 148.232086,424.183716 
z"/>
<path fill="#060B0E" opacity="1.000000" stroke="none" 
	d="
M153.736877,415.903290 
	C155.709824,420.424927 154.950272,421.311829 149.322327,421.067383 
	C147.686066,420.252838 147.359207,419.076050 147.739655,417.323608 
	C147.913437,416.973999 147.988907,416.967896 147.965012,416.938538 
	C148.211426,416.700012 148.413437,416.436981 148.780060,416.007690 
	C150.057327,415.878662 151.111740,415.869965 152.558502,415.812317 
	C153.148041,415.734344 153.345215,415.705322 153.736877,415.903290 
z"/>
<path fill="#8DADC0" opacity="1.000000" stroke="none" 
	d="
M148.014252,423.945343 
	C148.220490,425.270020 148.126480,426.731720 148.060501,428.565216 
	C146.480240,427.433228 146.944870,425.769562 148.014252,423.945343 
z"/>
<path fill="#99BACB" opacity="1.000000" stroke="none" 
	d="
M147.661407,417.206116 
	C148.128220,418.123779 147.693924,419.400604 148.785507,420.717896 
	C146.403854,420.728455 147.064133,419.014069 147.661407,417.206116 
z"/>
<path fill="#8DADC0" opacity="1.000000" stroke="none" 
	d="
M154.878647,423.549072 
	C153.643997,423.779449 152.223068,423.715088 150.408951,423.488464 
	C151.563416,422.572144 153.124664,422.703339 154.878647,423.549072 
z"/>
<path fill="#99BACB" opacity="1.000000" stroke="none" 
	d="
M148.847046,415.723969 
	C148.806534,416.161682 148.610168,416.436035 148.177460,416.809784 
	C147.833481,416.260712 147.779068,415.641876 148.847046,415.723969 
z"/>
<path fill="#99BACB" opacity="1.000000" stroke="none" 
	d="
M153.916306,415.930664 
	C153.763641,416.080872 153.595917,416.031403 153.189514,415.872620 
	C153.254684,415.370453 153.569519,415.302246 153.916306,415.930664 
z"/>
<path fill="#DAE9F0" opacity="1.000000" stroke="none" 
	d="
M293.915344,296.459229 
	C296.891968,296.480347 299.385040,296.553619 301.875763,296.505646 
	C304.616028,296.452850 305.727753,297.692871 305.651581,300.442688 
	C305.580048,303.024689 304.402222,303.931213 301.938843,303.908356 
	C294.296722,303.837433 286.652832,303.805817 279.011322,303.897949 
	C276.127808,303.932739 275.304871,302.592651 275.289429,299.939545 
	C275.273804,297.252228 276.599518,296.471649 278.976227,296.485016 
	C283.794220,296.512177 288.612579,296.470978 293.915344,296.459229 
z"/>
</svg>